<svg width="285" height="25" viewBox="0 0 285 25" fill="none" xmlns="http://www.w3.org/2000/svg">
<path d="M12.7059 0.959999C14.5725 0.959999 16.2419 1.248 17.7139 1.824C19.1965 2.38933 20.4552 3.2 21.4899 4.256C22.5245 5.312 23.3139 6.576 23.8579 8.048C24.4125 9.50933 24.6899 11.1413 24.6899 12.944C24.6899 14.576 24.4179 16.1013 23.8739 17.52C23.3299 18.9387 22.5459 20.1813 21.5219 21.248C20.4979 22.3147 19.2552 23.1467 17.7939 23.744C16.3432 24.3413 14.7059 24.64 12.8819 24.64C11.0259 24.64 9.35654 24.3573 7.87388 23.792C6.40188 23.216 5.14321 22.4 4.09788 21.344C3.06321 20.288 2.26854 19.0293 1.71388 17.568C1.16988 16.096 0.897875 14.4587 0.897875 12.656C0.897875 11.024 1.16988 9.49867 1.71388 8.08C2.25788 6.66133 3.04188 5.41867 4.06588 4.352C5.08988 3.28533 6.32721 2.45333 7.77788 1.856C9.23921 1.25867 10.8819 0.959999 12.7059 0.959999ZM17.0579 17.328C17.0579 15.8987 16.9405 14.5013 16.7059 13.136C16.4819 11.76 16.1725 10.4747 15.7779 9.28C15.3832 8.08533 14.9352 7.03467 14.4339 6.128C13.9325 5.22133 13.4045 4.512 12.8499 4C12.3059 3.47733 11.7619 3.216 11.2179 3.216C10.6419 3.216 10.1565 3.408 9.76188 3.792C9.37788 4.176 9.08454 4.74133 8.88188 5.488C8.68988 6.23467 8.59388 7.16267 8.59388 8.272C8.59388 9.70133 8.70588 11.104 8.92988 12.48C9.16454 13.8453 9.47921 15.1253 9.87388 16.32C10.2685 17.5147 10.7165 18.5653 11.2179 19.472C11.7192 20.3787 12.2419 21.0933 12.7859 21.616C13.3405 22.128 13.8899 22.384 14.4339 22.384C15.0205 22.384 15.5059 22.192 15.8899 21.808C16.2739 21.424 16.5619 20.8587 16.7539 20.112C16.9565 19.3653 17.0579 18.4373 17.0579 17.328ZM38.3279 20.72V20.512H38.0879V13.12C38.0879 12.7787 38.0399 12.5387 37.9439 12.4C37.8585 12.2507 37.7252 12.1493 37.5439 12.096L37.1919 11.984C36.9679 11.9093 36.8025 11.8027 36.6959 11.664C36.5999 11.5253 36.5519 11.3493 36.5519 11.136C36.5519 10.88 36.6212 10.6773 36.7599 10.528C36.8985 10.3787 37.1599 10.2293 37.5439 10.08L41.0959 8.704C41.6399 8.49067 42.0772 8.336 42.4079 8.24C42.7492 8.144 43.0799 8.096 43.3999 8.096C43.8799 8.096 44.2425 8.23467 44.4879 8.512C44.7439 8.77867 44.8719 9.12 44.8719 9.536V20.64C44.8719 21.0667 44.9039 21.3707 44.9679 21.552C45.0319 21.7227 45.1439 21.8453 45.3039 21.92L45.6559 22.08C45.9012 22.1867 46.0772 22.32 46.1839 22.48C46.2905 22.64 46.3439 22.8267 46.3439 23.04C46.3439 23.3387 46.2479 23.5733 46.0559 23.744C45.8639 23.9147 45.5545 24 45.1279 24H41.2079C40.4505 24 39.7785 23.6747 39.1919 23.024C38.6159 22.3733 38.3279 21.6053 38.3279 20.72ZM27.7519 19.328V13.12C27.7519 12.7787 27.7039 12.5387 27.6079 12.4C27.5225 12.2507 27.3892 12.1493 27.2079 12.096L26.8559 11.984C26.6319 11.9093 26.4665 11.8027 26.3599 11.664C26.2639 11.5253 26.2159 11.3493 26.2159 11.136C26.2159 10.88 26.2852 10.6773 26.4239 10.528C26.5625 10.3787 26.8239 10.2293 27.2079 10.08L30.7599 8.704C31.3359 8.48 31.7892 8.32533 32.1199 8.24C32.4505 8.144 32.7439 8.096 32.9999 8.096C33.5119 8.096 33.8959 8.23467 34.1519 8.512C34.4079 8.77867 34.5359 9.12 34.5359 9.536V18.368C34.5359 19.0507 34.6905 19.5627 34.9999 19.904C35.3199 20.2453 35.7625 20.416 36.3279 20.416C36.6799 20.416 37.0479 20.3467 37.4319 20.208C37.8159 20.0693 38.1572 19.8667 38.4559 19.6L39.0159 19.104L39.9759 20.128L39.4959 20.576C37.9919 22.016 36.6852 23.024 35.5759 23.6C34.4665 24.1653 33.4479 24.448 32.5199 24.448C31.1012 24.448 29.9492 23.9733 29.0639 23.024C28.1892 22.0747 27.7519 20.8427 27.7519 19.328ZM55.8256 15.264C55.8256 13.632 56.039 12.288 56.4656 11.232C56.8923 10.1653 57.4576 9.376 58.1616 8.864C58.8763 8.352 59.655 8.096 60.4976 8.096C61.6283 8.096 62.4923 8.43733 63.0896 9.12C63.6976 9.792 64.0016 10.8107 64.0016 12.176C64.0016 13.5733 63.719 14.6027 63.1536 15.264C62.599 15.9253 61.8736 16.256 60.9776 16.256C60.071 16.256 59.3883 16.0267 58.9296 15.568C58.4816 15.0987 58.2576 14.4533 58.2576 13.632V12.96C58.247 12.6827 58.183 12.4747 58.0656 12.336C57.959 12.1867 57.7883 12.112 57.5536 12.112C57.3403 12.112 57.1483 12.208 56.9776 12.4C56.8176 12.5813 56.6896 12.8853 56.5936 13.312C56.4976 13.728 56.4496 14.2933 56.4496 15.008L55.8256 15.264ZM56.0016 9.536L56.4496 12.88V20.64C56.4496 21.0133 56.503 21.28 56.6096 21.44C56.7163 21.5893 56.9616 21.7013 57.3456 21.776L58.5616 22.016C58.8816 22.08 59.1163 22.192 59.2656 22.352C59.415 22.512 59.4896 22.736 59.4896 23.024C59.4896 23.3333 59.383 23.5733 59.1696 23.744C58.967 23.9147 58.663 24 58.2576 24H49.4096C48.983 24 48.6736 23.9147 48.4816 23.744C48.2896 23.5733 48.1936 23.3387 48.1936 23.04C48.1936 22.8267 48.247 22.64 48.3536 22.48C48.4603 22.32 48.6363 22.1867 48.8816 22.08L49.2336 21.92C49.3936 21.8453 49.5056 21.7227 49.5696 21.552C49.6336 21.3707 49.6656 21.0667 49.6656 20.64V13.184C49.6656 12.8427 49.6176 12.6027 49.5216 12.464C49.4363 12.3147 49.303 12.2133 49.1216 12.16L48.7696 12.048C48.5456 11.9733 48.3803 11.8667 48.2736 11.728C48.1776 11.5893 48.1296 11.4133 48.1296 11.2C48.1296 10.944 48.199 10.7413 48.3376 10.592C48.487 10.432 48.7483 10.2827 49.1216 10.144L52.5616 8.8C53.319 8.50133 53.863 8.30933 54.1936 8.224C54.5243 8.13867 54.7803 8.096 54.9616 8.096C55.2603 8.096 55.4896 8.208 55.6496 8.432C55.8096 8.64533 55.927 9.01333 56.0016 9.536ZM87.8011 13.04C87.8011 13.8507 87.4918 14.5387 86.8731 15.104C86.2651 15.6693 85.4491 15.952 84.4251 15.952C83.4331 15.952 82.6865 15.6907 82.1851 15.168C81.6945 14.6347 81.4491 13.9573 81.4491 13.136V12.624C81.4491 11.9307 81.3051 11.3867 81.0171 10.992C80.7291 10.5867 80.3505 10.384 79.8811 10.384C79.5078 10.384 79.1558 10.5227 78.8251 10.8C78.5051 11.0773 78.2438 11.504 78.0411 12.08C77.8385 12.6453 77.7371 13.3653 77.7371 14.24C77.7371 15.4773 77.9451 16.512 78.3611 17.344C78.7878 18.176 79.3691 18.8053 80.1051 19.232C80.8411 19.648 81.6785 19.856 82.6171 19.856C83.2998 19.856 83.9131 19.776 84.4571 19.616C85.0118 19.4453 85.5611 19.12 86.1051 18.64C86.4145 18.3627 86.6491 18.176 86.8091 18.08C86.9691 17.984 87.1238 17.936 87.2731 17.936C87.4865 17.936 87.6411 18.0427 87.7371 18.256C87.8438 18.4693 87.8971 18.7307 87.8971 19.04C87.8971 19.9893 87.5771 20.88 86.9371 21.712C86.3078 22.5333 85.4278 23.1947 84.2971 23.696C83.1665 24.1973 81.8545 24.448 80.3611 24.448C78.7291 24.448 77.2625 24.128 75.9611 23.488C74.6705 22.8373 73.6465 21.936 72.8891 20.784C72.1318 19.6213 71.7531 18.2667 71.7531 16.72C71.7531 15.0667 72.1158 13.5893 72.8411 12.288C73.5771 10.9867 74.6118 9.96267 75.9451 9.216C77.2891 8.46933 78.8731 8.096 80.6971 8.096C82.1585 8.096 83.4171 8.32 84.4731 8.768C85.5398 9.20533 86.3611 9.79733 86.9371 10.544C87.5131 11.2907 87.8011 12.1227 87.8011 13.04ZM98.8929 8.096C100.706 8.096 102.29 8.44267 103.645 9.136C105 9.81867 106.05 10.7787 106.797 12.016C107.554 13.2533 107.933 14.6933 107.933 16.336C107.933 17.8507 107.538 19.2213 106.749 20.448C105.96 21.6747 104.866 22.6507 103.469 23.376C102.082 24.0907 100.472 24.448 98.6369 24.448C96.8235 24.448 95.2395 24.1013 93.8849 23.408C92.5302 22.704 91.4742 21.7333 90.7169 20.496C89.9702 19.2587 89.5969 17.8293 89.5969 16.208C89.5969 14.6613 89.9915 13.28 90.7809 12.064C91.5702 10.8373 92.6582 9.872 94.0449 9.168C95.4422 8.45333 97.0582 8.096 98.8929 8.096ZM100.061 22.128C100.466 22.032 100.776 21.7493 100.989 21.28C101.202 20.8107 101.298 20.128 101.277 19.232C101.256 18.336 101.096 17.2 100.797 15.824C100.52 14.5013 100.205 13.424 99.8529 12.592C99.5115 11.76 99.1382 11.1627 98.7329 10.8C98.3275 10.4373 97.9062 10.3093 97.4689 10.416C97.0635 10.512 96.7542 10.7947 96.5409 11.264C96.3275 11.7333 96.2315 12.416 96.2529 13.312C96.2849 14.1973 96.4449 15.3333 96.7329 16.72C97.0102 18.032 97.3249 19.1093 97.6769 19.952C98.0289 20.784 98.4022 21.3813 98.7969 21.744C99.2022 22.096 99.6235 22.224 100.061 22.128ZM117.918 9.536V20.64C117.918 21.0667 117.95 21.3653 118.014 21.536C118.078 21.7067 118.19 21.8347 118.35 21.92L118.67 22.096C119.022 22.2987 119.198 22.592 119.198 22.976C119.198 23.6587 118.788 24 117.966 24H110.878C110.452 24 110.142 23.9147 109.95 23.744C109.758 23.5733 109.662 23.3387 109.662 23.04C109.662 22.8267 109.716 22.64 109.822 22.48C109.929 22.32 110.105 22.1867 110.35 22.08L110.702 21.92C110.862 21.8453 110.974 21.7227 111.038 21.552C111.102 21.3707 111.134 21.0667 111.134 20.64V13.12C111.134 12.7787 111.086 12.5387 110.99 12.4C110.905 12.2507 110.772 12.1493 110.59 12.096L110.238 11.984C110.014 11.9093 109.849 11.8027 109.742 11.664C109.646 11.5253 109.598 11.3493 109.598 11.136C109.598 10.88 109.668 10.6773 109.806 10.528C109.945 10.3787 110.206 10.2293 110.59 10.08L114.142 8.704C114.686 8.49067 115.124 8.336 115.454 8.24C115.796 8.144 116.126 8.096 116.446 8.096C116.926 8.096 117.289 8.23467 117.534 8.512C117.79 8.77867 117.918 9.12 117.918 9.536ZM117.342 13.44L116.382 12.416L116.862 11.968C118.366 10.528 119.657 9.52533 120.734 8.96C121.822 8.384 122.83 8.096 123.758 8.096C125.188 8.096 126.324 8.57067 127.166 9.52C128.02 10.4587 128.446 11.6907 128.446 13.216V20.64C128.446 21.0667 128.478 21.3653 128.542 21.536C128.606 21.7067 128.718 21.8347 128.878 21.92L129.198 22.096C129.55 22.2987 129.726 22.592 129.726 22.976C129.726 23.6587 129.316 24 128.494 24H121.614C120.793 24 120.382 23.6587 120.382 22.976C120.382 22.592 120.558 22.2987 120.91 22.096L121.23 21.92C121.39 21.8347 121.502 21.7067 121.566 21.536C121.63 21.3653 121.662 21.0667 121.662 20.64V14.176C121.662 13.4933 121.518 12.9813 121.23 12.64C120.942 12.2987 120.516 12.128 119.95 12.128C119.598 12.128 119.241 12.1973 118.878 12.336C118.526 12.4747 118.201 12.6773 117.902 12.944L117.342 13.44ZM127.87 13.44L126.91 12.416L127.39 11.968C128.894 10.528 130.185 9.52533 131.262 8.96C132.35 8.384 133.358 8.096 134.286 8.096C135.716 8.096 136.852 8.57067 137.694 9.52C138.548 10.4587 138.974 11.6907 138.974 13.216V20.64C138.974 21.0667 139.006 21.3707 139.07 21.552C139.134 21.7227 139.246 21.8453 139.406 21.92L139.758 22.08C140.004 22.1867 140.18 22.32 140.286 22.48C140.393 22.64 140.446 22.8267 140.446 23.04C140.446 23.3387 140.35 23.5733 140.158 23.744C139.966 23.9147 139.657 24 139.23 24H132.142C131.321 24 130.91 23.6587 130.91 22.976C130.91 22.592 131.086 22.2987 131.438 22.096L131.758 21.92C131.918 21.8347 132.03 21.7067 132.094 21.536C132.158 21.3653 132.19 21.0667 132.19 20.64V14.176C132.19 13.4933 132.046 12.9813 131.758 12.64C131.47 12.2987 131.044 12.128 130.478 12.128C130.126 12.128 129.769 12.1973 129.406 12.336C129.054 12.4747 128.729 12.6773 128.43 12.944L127.87 13.44ZM150.231 9.536V20.64C150.231 21.0667 150.263 21.3653 150.327 21.536C150.391 21.7067 150.503 21.8347 150.663 21.92L150.983 22.096C151.335 22.2987 151.511 22.592 151.511 22.976C151.511 23.6587 151.1 24 150.279 24H143.191C142.764 24 142.455 23.9147 142.263 23.744C142.071 23.5733 141.975 23.3387 141.975 23.04C141.975 22.8267 142.028 22.64 142.135 22.48C142.242 22.32 142.418 22.1867 142.663 22.08L143.015 21.92C143.175 21.8453 143.287 21.7227 143.351 21.552C143.415 21.3707 143.447 21.0667 143.447 20.64V13.12C143.447 12.7787 143.399 12.5387 143.303 12.4C143.218 12.2507 143.084 12.1493 142.903 12.096L142.551 11.984C142.327 11.9093 142.162 11.8027 142.055 11.664C141.959 11.5253 141.911 11.3493 141.911 11.136C141.911 10.88 141.98 10.6773 142.119 10.528C142.258 10.3787 142.519 10.2293 142.903 10.08L146.455 8.704C146.999 8.49067 147.436 8.336 147.767 8.24C148.108 8.144 148.439 8.096 148.759 8.096C149.239 8.096 149.602 8.23467 149.847 8.512C150.103 8.77867 150.231 9.12 150.231 9.536ZM149.655 13.44L148.695 12.416L149.175 11.968C150.679 10.528 151.97 9.52533 153.047 8.96C154.135 8.384 155.143 8.096 156.071 8.096C157.5 8.096 158.636 8.57067 159.479 9.52C160.332 10.4587 160.759 11.6907 160.759 13.216V20.64C160.759 21.0667 160.791 21.3653 160.855 21.536C160.919 21.7067 161.031 21.8347 161.191 21.92L161.511 22.096C161.863 22.2987 162.039 22.592 162.039 22.976C162.039 23.6587 161.628 24 160.807 24H153.927C153.106 24 152.695 23.6587 152.695 22.976C152.695 22.592 152.871 22.2987 153.223 22.096L153.543 21.92C153.703 21.8347 153.815 21.7067 153.879 21.536C153.943 21.3653 153.975 21.0667 153.975 20.64V14.176C153.975 13.4933 153.831 12.9813 153.543 12.64C153.255 12.2987 152.828 12.128 152.263 12.128C151.911 12.128 151.554 12.1973 151.191 12.336C150.839 12.4747 150.514 12.6773 150.215 12.944L149.655 13.44ZM160.183 13.44L159.223 12.416L159.703 11.968C161.207 10.528 162.498 9.52533 163.575 8.96C164.663 8.384 165.671 8.096 166.599 8.096C168.028 8.096 169.164 8.57067 170.007 9.52C170.86 10.4587 171.287 11.6907 171.287 13.216V20.64C171.287 21.0667 171.319 21.3707 171.383 21.552C171.447 21.7227 171.559 21.8453 171.719 21.92L172.071 22.08C172.316 22.1867 172.492 22.32 172.599 22.48C172.706 22.64 172.759 22.8267 172.759 23.04C172.759 23.3387 172.663 23.5733 172.471 23.744C172.279 23.9147 171.97 24 171.543 24H164.455C163.634 24 163.223 23.6587 163.223 22.976C163.223 22.592 163.399 22.2987 163.751 22.096L164.071 21.92C164.231 21.8347 164.343 21.7067 164.407 21.536C164.471 21.3653 164.503 21.0667 164.503 20.64V14.176C164.503 13.4933 164.359 12.9813 164.071 12.64C163.783 12.2987 163.356 12.128 162.791 12.128C162.439 12.128 162.082 12.1973 161.719 12.336C161.367 12.4747 161.042 12.6773 160.743 12.944L160.183 13.44ZM182.543 9.536V20.64C182.543 21.0667 182.575 21.3707 182.639 21.552C182.703 21.7227 182.815 21.8453 182.975 21.92L183.327 22.08C183.573 22.1867 183.749 22.32 183.855 22.48C183.962 22.64 184.015 22.8267 184.015 23.04C184.015 23.3387 183.919 23.5733 183.727 23.744C183.535 23.9147 183.226 24 182.799 24H175.503C175.077 24 174.767 23.9147 174.575 23.744C174.383 23.5733 174.287 23.3387 174.287 23.04C174.287 22.8267 174.341 22.64 174.447 22.48C174.554 22.32 174.73 22.1867 174.975 22.08L175.327 21.92C175.487 21.8453 175.599 21.7227 175.663 21.552C175.727 21.3707 175.759 21.0667 175.759 20.64V13.12C175.759 12.7787 175.711 12.5387 175.615 12.4C175.53 12.2507 175.397 12.1493 175.215 12.096L174.863 11.984C174.639 11.9093 174.474 11.8027 174.367 11.664C174.271 11.5253 174.223 11.3493 174.223 11.136C174.223 10.88 174.293 10.6773 174.431 10.528C174.57 10.3787 174.831 10.2293 175.215 10.08L178.767 8.704C179.343 8.48 179.797 8.32533 180.127 8.24C180.458 8.144 180.751 8.096 181.007 8.096C181.519 8.096 181.903 8.23467 182.159 8.512C182.415 8.77867 182.543 9.12 182.543 9.536ZM178.799 6.688C177.605 6.688 176.661 6.41067 175.967 5.856C175.274 5.30133 174.927 4.544 174.927 3.584C174.927 2.63467 175.274 1.888 175.967 1.344C176.661 0.799999 177.605 0.527998 178.799 0.527998C179.994 0.527998 180.938 0.799999 181.631 1.344C182.325 1.888 182.671 2.63467 182.671 3.584C182.671 4.544 182.325 5.30133 181.631 5.856C180.938 6.41067 179.994 6.688 178.799 6.688ZM186.145 10.656L185.633 10.448C185.399 10.352 185.223 10.2293 185.105 10.08C184.988 9.93067 184.929 9.74933 184.929 9.536C184.929 9.22667 185.031 8.992 185.233 8.832C185.447 8.66133 185.719 8.576 186.049 8.576H186.929C187.132 8.576 187.319 8.52267 187.489 8.416C187.671 8.30933 187.9 8.11733 188.177 7.84L190.785 5.2C191.137 4.848 191.463 4.58667 191.761 4.416C192.071 4.24533 192.364 4.16 192.641 4.16C192.951 4.16 193.191 4.26133 193.361 4.464C193.543 4.66667 193.633 4.96 193.633 5.344V18.176C193.633 18.9547 193.767 19.5467 194.033 19.952C194.3 20.3573 194.684 20.56 195.185 20.56C195.591 20.56 195.9 20.4587 196.113 20.256C196.337 20.0533 196.513 19.824 196.641 19.568C196.78 19.3013 196.924 19.0667 197.073 18.864C197.223 18.6613 197.425 18.56 197.681 18.56C197.895 18.56 198.065 18.6347 198.193 18.784C198.321 18.9333 198.385 19.1893 198.385 19.552C198.385 20.4587 198.124 21.2853 197.601 22.032C197.079 22.768 196.359 23.3547 195.441 23.792C194.524 24.2293 193.479 24.448 192.305 24.448C190.567 24.448 189.223 24.032 188.273 23.2C187.324 22.3573 186.849 21.088 186.849 19.392V11.696C186.849 11.3867 186.791 11.1627 186.673 11.024C186.567 10.8853 186.391 10.7627 186.145 10.656ZM191.297 10.848V8.576H197.137C197.468 8.576 197.729 8.65067 197.921 8.8C198.124 8.93867 198.225 9.14133 198.225 9.408C198.225 9.81333 198.028 10.1547 197.633 10.432C197.239 10.7093 196.588 10.848 195.681 10.848H191.297ZM207.95 9.536V20.64C207.95 21.0667 207.982 21.3653 208.046 21.536C208.11 21.7067 208.222 21.8347 208.382 21.92L208.702 22.096C209.054 22.2987 209.23 22.592 209.23 22.976C209.23 23.6587 208.819 24 207.998 24H200.91C200.483 24 200.174 23.9147 199.982 23.744C199.79 23.5733 199.694 23.3387 199.694 23.04C199.694 22.8267 199.747 22.64 199.854 22.48C199.96 22.32 200.136 22.1867 200.382 22.08L200.734 21.92C200.894 21.8453 201.006 21.7227 201.07 21.552C201.134 21.3707 201.166 21.0667 201.166 20.64V13.12C201.166 12.7787 201.118 12.5387 201.022 12.4C200.936 12.2507 200.803 12.1493 200.622 12.096L200.27 11.984C200.046 11.9093 199.88 11.8027 199.774 11.664C199.678 11.5253 199.63 11.3493 199.63 11.136C199.63 10.88 199.699 10.6773 199.838 10.528C199.976 10.3787 200.238 10.2293 200.622 10.08L204.174 8.704C204.718 8.49067 205.155 8.336 205.486 8.24C205.827 8.144 206.158 8.096 206.478 8.096C206.958 8.096 207.32 8.23467 207.566 8.512C207.822 8.77867 207.95 9.12 207.95 9.536ZM207.374 13.44L206.414 12.416L206.894 11.968C208.398 10.528 209.688 9.52533 210.766 8.96C211.854 8.384 212.862 8.096 213.79 8.096C215.219 8.096 216.355 8.57067 217.198 9.52C218.051 10.4587 218.478 11.6907 218.478 13.216V20.64C218.478 21.0667 218.51 21.3653 218.574 21.536C218.638 21.7067 218.75 21.8347 218.91 21.92L219.23 22.096C219.582 22.2987 219.758 22.592 219.758 22.976C219.758 23.6587 219.347 24 218.526 24H211.646C210.824 24 210.414 23.6587 210.414 22.976C210.414 22.592 210.59 22.2987 210.942 22.096L211.262 21.92C211.422 21.8347 211.534 21.7067 211.598 21.536C211.662 21.3653 211.694 21.0667 211.694 20.64V14.176C211.694 13.4933 211.55 12.9813 211.262 12.64C210.974 12.2987 210.547 12.128 209.982 12.128C209.63 12.128 209.272 12.1973 208.91 12.336C208.558 12.4747 208.232 12.6773 207.934 12.944L207.374 13.44ZM217.902 13.44L216.942 12.416L217.422 11.968C218.926 10.528 220.216 9.52533 221.294 8.96C222.382 8.384 223.39 8.096 224.318 8.096C225.747 8.096 226.883 8.57067 227.726 9.52C228.579 10.4587 229.006 11.6907 229.006 13.216V20.64C229.006 21.0667 229.038 21.3707 229.102 21.552C229.166 21.7227 229.278 21.8453 229.438 21.92L229.79 22.08C230.035 22.1867 230.211 22.32 230.318 22.48C230.424 22.64 230.478 22.8267 230.478 23.04C230.478 23.3387 230.382 23.5733 230.19 23.744C229.998 23.9147 229.688 24 229.262 24H222.174C221.352 24 220.942 23.6587 220.942 22.976C220.942 22.592 221.118 22.2987 221.47 22.096L221.79 21.92C221.95 21.8347 222.062 21.7067 222.126 21.536C222.19 21.3653 222.222 21.0667 222.222 20.64V14.176C222.222 13.4933 222.078 12.9813 221.79 12.64C221.502 12.2987 221.075 12.128 220.51 12.128C220.158 12.128 219.8 12.1973 219.438 12.336C219.086 12.4747 218.76 12.6773 218.462 12.944L217.902 13.44ZM248.214 14.272C248.214 15.0187 248.011 15.6 247.606 16.016C247.201 16.4213 246.619 16.624 245.862 16.624H236.374V14.96H240.646C241.233 14.96 241.526 14.6827 241.526 14.128C241.526 12.784 241.371 11.824 241.062 11.248C240.753 10.672 240.342 10.384 239.83 10.384C239.457 10.384 239.121 10.5227 238.822 10.8C238.523 11.0773 238.283 11.504 238.102 12.08C237.931 12.6453 237.846 13.3653 237.846 14.24C237.846 16.1813 238.283 17.6053 239.158 18.512C240.033 19.408 241.227 19.856 242.742 19.856C243.446 19.856 244.086 19.776 244.662 19.616C245.238 19.456 245.803 19.1307 246.358 18.64C246.667 18.3627 246.902 18.176 247.062 18.08C247.222 17.984 247.377 17.936 247.526 17.936C247.739 17.936 247.894 18.0427 247.99 18.256C248.097 18.4693 248.15 18.7307 248.15 19.04C248.15 19.9893 247.825 20.88 247.174 21.712C246.534 22.5333 245.638 23.1947 244.486 23.696C243.345 24.1973 242.011 24.448 240.486 24.448C238.854 24.448 237.387 24.128 236.086 23.488C234.785 22.8373 233.755 21.936 232.998 20.784C232.241 19.6213 231.862 18.2667 231.862 16.72C231.862 14.9813 232.209 13.4667 232.902 12.176C233.595 10.8853 234.603 9.88267 235.926 9.168C237.259 8.45333 238.865 8.096 240.742 8.096C242.395 8.096 243.777 8.36267 244.886 8.896C245.995 9.42933 246.827 10.16 247.382 11.088C247.937 12.016 248.214 13.0773 248.214 14.272ZM258.168 9.536V20.64C258.168 21.0667 258.2 21.3653 258.264 21.536C258.328 21.7067 258.44 21.8347 258.6 21.92L258.92 22.096C259.272 22.2987 259.448 22.592 259.448 22.976C259.448 23.6587 259.038 24 258.216 24H251.128C250.702 24 250.392 23.9147 250.2 23.744C250.008 23.5733 249.912 23.3387 249.912 23.04C249.912 22.8267 249.966 22.64 250.072 22.48C250.179 22.32 250.355 22.1867 250.6 22.08L250.952 21.92C251.112 21.8453 251.224 21.7227 251.288 21.552C251.352 21.3707 251.384 21.0667 251.384 20.64V13.12C251.384 12.7787 251.336 12.5387 251.24 12.4C251.155 12.2507 251.022 12.1493 250.84 12.096L250.488 11.984C250.264 11.9093 250.099 11.8027 249.992 11.664C249.896 11.5253 249.848 11.3493 249.848 11.136C249.848 10.88 249.918 10.6773 250.056 10.528C250.195 10.3787 250.456 10.2293 250.84 10.08L254.392 8.704C254.936 8.49067 255.374 8.336 255.704 8.24C256.046 8.144 256.376 8.096 256.696 8.096C257.176 8.096 257.539 8.23467 257.784 8.512C258.04 8.77867 258.168 9.12 258.168 9.536ZM257.592 13.44L256.632 12.416L257.112 11.968C258.616 10.528 259.923 9.52533 261.032 8.96C262.142 8.384 263.16 8.096 264.088 8.096C265.518 8.096 266.67 8.57067 267.544 9.52C268.419 10.4587 268.856 11.6907 268.856 13.216V20.64C268.856 21.0667 268.888 21.3707 268.952 21.552C269.016 21.7227 269.128 21.8453 269.288 21.92L269.64 22.08C269.886 22.1867 270.062 22.32 270.168 22.48C270.275 22.64 270.328 22.8267 270.328 23.04C270.328 23.3387 270.232 23.5733 270.04 23.744C269.848 23.9147 269.539 24 269.112 24H262.024C261.203 24 260.792 23.6587 260.792 22.976C260.792 22.592 260.968 22.2987 261.32 22.096L261.64 21.92C261.8 21.8347 261.912 21.7067 261.976 21.536C262.04 21.3653 262.072 21.0667 262.072 20.64V14.176C262.072 13.4933 261.912 12.9813 261.592 12.64C261.283 12.2987 260.846 12.128 260.28 12.128C259.928 12.128 259.56 12.1973 259.176 12.336C258.792 12.4747 258.451 12.6773 258.152 12.944L257.592 13.44ZM272.458 10.656L271.946 10.448C271.711 10.352 271.535 10.2293 271.418 10.08C271.301 9.93067 271.242 9.74933 271.242 9.536C271.242 9.22667 271.343 8.992 271.546 8.832C271.759 8.66133 272.031 8.576 272.362 8.576H273.242C273.445 8.576 273.631 8.52267 273.802 8.416C273.983 8.30933 274.213 8.11733 274.49 7.84L277.098 5.2C277.45 4.848 277.775 4.58667 278.074 4.416C278.383 4.24533 278.677 4.16 278.954 4.16C279.263 4.16 279.503 4.26133 279.674 4.464C279.855 4.66667 279.946 4.96 279.946 5.344V18.176C279.946 18.9547 280.079 19.5467 280.346 19.952C280.613 20.3573 280.997 20.56 281.498 20.56C281.903 20.56 282.213 20.4587 282.426 20.256C282.65 20.0533 282.826 19.824 282.954 19.568C283.093 19.3013 283.237 19.0667 283.386 18.864C283.535 18.6613 283.738 18.56 283.994 18.56C284.207 18.56 284.378 18.6347 284.506 18.784C284.634 18.9333 284.698 19.1893 284.698 19.552C284.698 20.4587 284.437 21.2853 283.914 22.032C283.391 22.768 282.671 23.3547 281.754 23.792C280.837 24.2293 279.791 24.448 278.618 24.448C276.879 24.448 275.535 24.032 274.586 23.2C273.637 22.3573 273.162 21.088 273.162 19.392V11.696C273.162 11.3867 273.103 11.1627 272.986 11.024C272.879 10.8853 272.703 10.7627 272.458 10.656ZM277.61 10.848V8.576H283.45C283.781 8.576 284.042 8.65067 284.234 8.8C284.437 8.93867 284.538 9.14133 284.538 9.408C284.538 9.81333 284.341 10.1547 283.946 10.432C283.551 10.7093 282.901 10.848 281.994 10.848H277.61Z" fill="#333D4B"/>
</svg>
